HIERARCHY
ROOT HipCenter
{
    OFFSET 0.0 0.0 -0.0
    CHANNELS 6 Xposition Yposition Zposition Zrotation Xrotation Yrotation
    JOINT Spine
    {
        OFFSET 0.0 0.12093640118837357 0.0
        CHANNELS 3 Zrotation Xrotation Yrotation
        JOINT ShoulderCenter
        {
            OFFSET 0.0 0.33488109707832336 0.0
            CHANNELS 3 Zrotation Xrotation Yrotation
            JOINT LeftShoulder
            {
                OFFSET 0.19041869044303894 0.0 0.0
                CHANNELS 3 Zrotation Xrotation Yrotation
                JOINT LeftElbow
                {
                    OFFSET 0.2975490093231201 0.0 0.0
                    CHANNELS 3 Zrotation Xrotation Yrotation
                    JOINT LeftWrist
                    {
                        OFFSET 0.2959679365158081 0.0 0.0
                        CHANNELS 3 Zrotation Xrotation Yrotation
                        JOINT LeftHand
                        {
                            OFFSET 0.04410998895764351 0.0 0.0
                            CHANNELS 3 Zrotation Xrotation Yrotation
                            End Site
                            {
                                OFFSET 0.017643995583057404 0.0 0.0
                            }
                        }
                    }
                }
            }
            JOINT RightShoulder
            {
                OFFSET -0.19041869044303894 0.0 0.0
                CHANNELS 3 Zrotation Xrotation Yrotation
                JOINT RightElbow
                {
                    OFFSET -0.2975490093231201 0.0 0.0
                    CHANNELS 3 Zrotation Xrotation Yrotation
                    JOINT RightWrist
                    {
                        OFFSET -0.2959679365158081 0.0 0.0
                        CHANNELS 3 Zrotation Xrotation Yrotation
                        JOINT RightHand
                        {
                            OFFSET -0.04410998895764351 0.0 0.0
                            CHANNELS 3 Zrotation Xrotation Yrotation
                            End Site
                            {
                                OFFSET -0.017643995583057404 0.0 0.0
                            }
                        }
                    }
                }
            }
            End Site
            {
                OFFSET 0.0 0.13395243883132935 0.0
            }
        }
    }
    JOINT LeftHip
    {
        OFFSET 0.13975726068019867 0.0 0.0
        CHANNELS 3 Zrotation Xrotation Yrotation
        JOINT LeftKnee
        {
            OFFSET 0.0 -0.4064551293849945 0.0
            CHANNELS 3 Zrotation Xrotation Yrotation
            JOINT LeftAnkle
            {
                OFFSET 0.0 -0.44777655601501465 0.0
                CHANNELS 3 Zrotation Xrotation Yrotation
                JOINT LeftFoot
                {
                    OFFSET 0.0 -0.10070839524269104 0.0
                    CHANNELS 3 Zrotation Xrotation Yrotation
                    End Site
                    {
                        OFFSET 0.0 0.0 0.040283359587192535
                    }
                }
            }
        }
    }
    JOINT RightHip
    {
        OFFSET -0.13975726068019867 0.0 0.0
        CHANNELS 3 Zrotation Xrotation Yrotation
        JOINT RightKnee
        {
            OFFSET 0.0 -0.4064551293849945 0.0
            CHANNELS 3 Zrotation Xrotation Yrotation
            JOINT RightAnkle
            {
                OFFSET 0.0 -0.44777655601501465 0.0
                CHANNELS 3 Zrotation Xrotation Yrotation
                JOINT RightFoot
                {
                    OFFSET 0.0 -0.10070839524269104 0.0
                    CHANNELS 3 Zrotation Xrotation Yrotation
                    End Site
                    {
                        OFFSET 0.0 0.0 0.040283359587192535
                    }
                }
            }
        }
    }
}
MOTION
Frames: 10
Frame Time: 0.03333333333333333
0.5139999985694885 -0.5910000205039978 0.3269999921321869 -177.01854038509651 37.212591507471885 -4.210223743252043 -4.225623465749003 17.7062565966119 1.5730930250147643 -4.8357355000742985e-08 1.6265911862835274e-06 -0.17300323006535262 93.80875209165075 18.102728840004843 -76.47322689456604 3.154416653733985e-06 1.7627339164129638e-06 111.40240942106978 3.078416473237138e-05 -78.33880754291751 93.68677299926797 -3.1805546814635168e-15 6.3611093629270335e-15 7.951386703658794e-16 -87.0778607166417 16.133299727937725 82.96680101080241 1.1804538175460252e-06 -1.2612130824025015e-06 -114.88250074372243 -0.0011552416362164465 -89.75733234399375 -87.25480498081082 3.1805546814635168e-15 -5.172546443027529e-32 -1.8636062586700292e-15 109.42436467119576 -39.93719410537158 -148.01742968207805 5.241933066009901 -6.424710534416716 9.027031234758399 -125.59077954474137 54.90575126287164 67.47592383313314 0.0 0.0 -3.9756933518293955e-16 -113.57553120456049 -47.60613194331793 155.0710596298261 -2.0227540366869556 -2.5610126647892137 -3.2442071631910587 115.02355983027728 20.822461975233445 -35.30476697028483 3.1805546814635168e-15 -6.3611093629270335e-15 7.951386703658794e-16
0.5139999985694885 -0.6549999713897705 0.2680000066757202 -176.5526164353136 46.623037591128295 -5.444966018226186 -4.524563577010051 16.931887614776002 1.7079628137234666 -2.4597876586106813e-07 8.568599872514672e-07 -0.8102383490197022 92.7292595440032 18.374199087093334 -73.43907540702975 2.210166557966172e-06 1.9981607341057977e-06 110.54198392166742 3.103010593060426e-06 -77.34656116997851 93.02939134025696 0.0 0.0 7.951386703658792e-16 -86.34996459019104 14.793656218898413 80.72027128070282 1.5561874725960782e-06 6.3694066957272004e-06 -114.15130217920104 -179.99968364606636 -89.61113809083785 97.90695399166454 -3.1805546814635168e-15 -2.2069531490250793e-32 7.951386703658792e-16 110.38044126488981 -37.781154179376976 -145.60714772020287 9.322271897023272 -9.972990277413896 15.242576624267432 -115.23502644329756 57.452694977712746 54.53019147899838 -5.29668755766019e-31 6.3611093629270335e-15 9.54166404439055e-15 -113.76557781233507 -46.85681476148094 154.23257435918427 -3.923373996208659 -4.59418724524819 -6.1339659990233875 107.9837476867365 24.3135224130296 -30.388765203030708 -3.1805546814635168e-15 -9.103681739728452e-32 3.2799470152592518e-15
0.5139999985694885 -0.722000002861023 0.20999999344348907 -175.2363628325412 60.16964223441458 -5.347251579293466 -4.030689999553539 11.769540788448765 1.5847355384406787 -5.215306493024806e-08 4.990847411904627e-07 -0.04000467450572971 94.9177385880591 15.485392437621718 -74.24762735785438 4.183621719675027e-07 2.9331007442524354e-06 111.49067709187565 -5.643719610247932e-07 -19.95417970084281 90.03348677879194 0.0 0.0 0.0 -89.25691831417782 18.088943811778773 77.90214454107063 -9.58127892599376e-07 -5.254450008201221e-07 -114.9797070005476 -179.9999399703073 -86.20925677260362 102.0255872508448 0.0 0.0 0.0 114.7758037327771 -36.9894271634341 -142.1067045462456 15.377645351964292 -12.606850013615222 24.2258159221892 -106.09678044525783 58.0679025601876 40.0141773454397 0.0 0.0 -6.3611093629270335e-15 -118.8689884736124 -41.76939584901607 145.3432695281415 -10.284135983153421 -9.275947985175167 -12.978313312939482 93.67787075350736 29.304748088712813 -22.117382576683745 -6.3611093629270335e-15 6.3611093629270335e-15 3.531125038440127e-31
0.5149999856948853 -0.777999997138977 0.164000004529953 -173.08875775967144 74.00954967941314 -6.909179586136513 -1.06233119747172 6.525611698276826 0.49843151240295847 3.3962385059310095e-07 -4.787475319142846e-06 3.503658051095171 101.09893803998278 18.830078501943955 -79.55532838192924 4.480624938399057e-06 -1.131153547892633e-06 114.11451328313912 4.102438674685967e-07 -27.171336362766546 76.9668521105085 0.0 0.0 -3.3793393490549868e-15 -98.25466745950861 23.091287441517448 84.70642378714656 8.822744559512131e-07 4.341385453140222e-07 -116.8402721053653 -179.9999962106112 -79.87866047630817 112.7376486227942 1.5902773407317584e-15 0.0 0.0 119.75278526132257 -33.14990727205402 -138.42284532421957 25.258533874089427 -14.380086286702545 33.29536198111877 -93.34159955104055 58.07257617206448 24.628873274772573 3.1805546814635168e-15 -8.827812596100317e-32 -3.1805546814635168e-15 -123.25393779251185 -36.687235203850584 139.765124275425 -19.780537288802734 -13.663914759083102 -22.04856707937545 79.95699896078608 33.225411066111036 -13.022412030019042 -3.1805546814635168e-15 -8.827812596100317e-32 3.1805546814635168e-15
0.5149999856948853 -0.8289999961853027 0.1289999932050705 -150.25519489735737 86.18793419254283 -29.134201593039144 -1.0411362328844704 -1.1567328495997888 -0.06279734424621854 7.856474330561377e-08 1.5555603010330238e-06 4.380266184517799 117.19730866911245 17.84170523489841 -92.24611471974313 -1.987089150312595e-06 -7.053561700821212e-07 105.99637846174917 1.0424320247553701e-07 -42.54727848494127 46.798466631063235 0.0 0.0 0.0 -110.79812697785556 21.809014600436104 101.39238857798043 1.1864621518615867e-06 -8.406784979079108e-07 -111.68453294172991 -179.9999933218361 -66.17607663088856 123.96049942638601 3.975693351829395e-16 -2.2069531490250793e-32 -6.361109362927032e-15 120.47558050260392 -30.22648075759928 -135.44806269816766 33.39627758586413 -15.686572092391588 43.53607436202124 -77.0291720128918 61.76556846745294 8.130094479970053 -6.361109362927033e-15 0.0 0.0 -124.17697057957196 -33.478119022307766 137.99849784841888 -27.08173052064351 -15.978787232704214 -31.36547727439213 66.7935918696509 38.91770547466696 -3.5313671189381473 -1.5902773407317584e-15 8.827812596100317e-32 -6.3611093629270335e-15
0.5139999985694885 -0.8709999918937683 0.10300000011920929 -12.994682286508684 83.65585475760518 -166.23429794590254 -1.7895999113242334 -1.5211340627541587 -0.12179643693987707 -2.9782710556840812e-08 -9.226256376331093e-07 1.672379495785616 134.50207772902704 13.262393676310914 -105.9888344111351 9.40774467639349e-07 -7.127426017879969e-06 97.83839461000787 -1.4256059980481681e-06 -50.624157239943656 43.980057330355166 -6.3611093629270335e-15 1.5902773407317584e-15 8.827812596100317e-32 -118.1143519674852 10.875753937685614 113.40835638221624 -7.531011567341262e-08 -5.768968112698037e-07 -102.16452669529822 -179.9999958904979 -60.22616062636288 123.06940610836187 -3.1805546814635168e-15 1.7655625192200634e-31 -6.3611093629270335e-15 117.97303646698457 -30.122310281824685 -136.5352881173797 40.53149939468031 -17.216400477422976 67.0706902325186 -39.858032461783935 75.4656361431925 -30.721757376414363 1.5902773407317584e-15 0.0 0.0 -121.13498377153039 -34.09000827862147 139.2528740493453 -31.93570007406284 -18.064988075973925 -43.15114915216042 48.36923634925364 46.17281344265988 11.78780555675477 -1.987846675914698e-15 0.0 0.0
0.5170000195503235 -0.9039999842643738 0.08799999952316284 -1.9091288741394625 75.61095165784629 -177.37660679942312 -0.9962255598826749 -0.49826719956355675 -0.03081765342831183 -1.2593307534776076e-07 1.4619999902525659e-06 2.433137017703748 138.74136435671323 -0.5576627842198739 -113.46596651344888 -2.201073957407503e-06 -1.4171278925469988e-06 86.89064019782104 -2.236891627541203e-06 -44.2710043952161 45.32801046268656 -3.180554681463516e-15 0.0 0.0 -116.49048529782573 1.3713088924205217 123.84004236385908 -5.51936952199266e-06 4.251830027606936e-06 -89.09353251637886 -179.99999632966265 -59.07521616095618 124.94905257385527 0.0 0.0 0.0 113.78163808263338 -31.77363850630738 -140.17031900760324 45.05576821010076 -19.662390449979295 85.7521063499933 23.884143065180222 76.60572047888712 -94.28798905921619 -1.1927080055488188e-15 -6.620859447075238e-32 6.3611093629270335e-15 -116.3669377973005 -37.29904097505878 144.11428125122683 -36.567707927888165 -19.150016596410975 -58.97903399756488 35.21791013745261 53.70311564353725 27.379068748626597 7.951386703658792e-16 0.0 0.0
0.515999972820282 -0.9139999747276306 0.08399999886751175 -1.4321643967196984 70.6596115602686 -175.64597672534583 -1.7824005485381373 4.500139662048877 0.7772522795588779 1.230390200379676e-07 3.0052614777074095e-06 0.1649464203899946 133.89134409109582 -12.635222269570649 -117.60189611442868 -2.772955486754348e-06 5.3141839824548495e-06 73.37061288361623 -1.174379055163696e-06 -53.398961034652686 45.9763977879032 2.782985346280577e-15 3.1805546814635168e-15 -7.724336021587778e-32 -104.9249912057517 -3.6093914103715807 131.10508334567703 4.221393343388226e-06 2.11293020904141e-06 -71.80733167020024 179.99999337449995 -52.61219938173712 124.8858101906406 0.0 6.3611093629270335e-15 0.0 105.53543349454691 -38.68539844674525 -157.6569759236672 49.62335614766792 -14.991086178404341 123.35713566657971 69.14305053141229 51.10817230008438 -148.11581354537907 -6.3611093629270335e-15 -3.531125038440127e-31 6.3611093629270335e-15 -108.47350996223278 -37.493772093640736 151.8485843657791 -41.45703076950009 -21.17944477808865 -59.59563671427938 32.60949583127781 51.59304326245451 27.14701363503978 0.0 0.0 0.0
0.5149999856948853 -0.902999997138977 0.06499999761581421 -1.3639093335751638 69.60552690565713 -176.40055863362673 -2.018615339474694 13.859890837844118 1.8715004359016356 -1.0973321171741743e-07 -4.27984599786656e-06 0.2720311614399304 120.23313257823695 -19.431498743675984 -123.84405284543627 -3.4616635293746244e-06 3.866018316408031e-06 58.73104343807793 -8.820662467954111e-07 -64.84528234711829 43.916385648630424 6.3611093629270335e-15 -3.531125038440127e-31 -6.3611093629270335e-15 -92.38695120050201 -3.1865962407726443 136.5457999113476 3.38443514611415e-08 3.98307765202499e-06 -54.48967340990056 -179.99999875538714 -48.125036060052665 120.93734489398592 0.0 0.0 -3.1805546814635168e-15 93.61530804516009 -38.6960445854881 -168.64492152607946 54.30220899969772 -17.903932143566127 134.66070738168534 63.972742820589325 43.384633865699186 -140.24174474577558 6.3611093629270335e-15 0.0 0.0 -97.18364081146711 -40.54049622461733 164.37419428769263 -47.063685547952346 -22.927711642404745 -87.6599483002852 -0.4003587721785612 54.29041680266565 62.92182289254525 -3.180554681463516e-15 3.1805546814635168e-15 -6.361109362927033e-15
0.5149999856948853 -0.8980000019073486 0.029999999329447746 1.8778541605507593 59.59330573965804 -178.75790923289847 -0.2672938198073868 14.146843022816306 1.110580082311025 -8.225159522662103e-08 1.7970776109492563e-06 0.3167659926254706 104.782198047026 -19.391947144302126 -131.8902738252984 1.7169774705578295e-06 4.013313008358922e-06 42.33700722348434 -3.1656999245759123e-06 -69.68118439645097 45.09369168996504 -3.1805546814635164e-15 3.1805546814635164e-15 8.827812596100317e-32 -86.84130506389403 -2.041797260646305 139.9892229433418 -2.016025339616342e-06 9.062085624906266e-07 -37.93425652626407 -179.99999698107052 -44.102349672578626 115.10542284130504 1.5902773407317584e-15 2.2069531490250793e-32 1.5902773407317584e-15 92.80438074261933 -38.55735241062768 -161.57386577249054 55.41950108857733 -25.44558793108868 132.0084296554615 60.301870457221874 46.733437790202935 -125.75509170291319 -3.1805546814635168e-15 6.3611093629270335e-15 1.7655625192200634e-31 -94.60325286628644 -40.18469732644883 160.37549437005748 -50.16686059751205 -27.433300896663788 -108.73962575440895 -13.43465852217294 45.4822084258226 69.0168787683497 -6.3611093629270335e-15 -3.531125038440127e-31 6.3611093629270335e-15
